<svg width="44" height="46" viewBox="0 0 44 46" fill="none" xmlns="http://www.w3.org/2000/svg">
<ellipse cx="21.7333" cy="23" rx="21.7333" ry="23" fill="#F3F5F8"/>
<path d="M31.6032 22.4954C31.9929 24.1212 31.9929 25.7467 31.6032 27.3725C31.2133 28.9983 30.4644 30.4187 29.3558 31.6345C28.2474 32.8501 26.952 33.6718 25.4697 34.0992C23.9874 34.5268 22.5052 34.5268 21.0228 34.0993C19.5403 33.6719 18.2449 32.8502 17.1365 31.6347C16.0281 30.419 15.2792 28.9984 14.8892 27.3726C14.4995 25.7469 14.4995 24.1214 14.8892 22.4955C15.2791 20.8697 16.0282 19.4491 17.1366 18.2335C18.245 17.0179 19.5404 16.1962 21.0228 15.7687C22.505 15.3411 23.9873 15.3414 25.4696 15.7688C26.9519 16.1964 28.2473 17.018 29.3556 18.2336C30.4641 19.4493 31.2133 20.87 31.6032 22.4954ZM28.4648 30.6574C29.7799 29.215 30.4933 27.4787 30.6047 25.4489L30.3661 25.4054C30.2706 25.3878 30.0639 25.3792 29.7456 25.3791C29.4275 25.3791 29.1026 25.4037 28.7712 25.4532C28.4395 25.5027 28.0207 25.6044 27.5141 25.7586C27.0076 25.9128 26.5024 26.1148 25.9985 26.365C26.5131 28.267 26.8738 30.0933 27.0806 31.844C27.6004 31.4949 28.0617 31.0994 28.4648 30.6574ZM22.3953 32.9696C23.5459 33.1149 24.6596 32.9755 25.7363 32.5507C25.5188 30.8698 25.1634 29.0609 24.6702 27.124C22.6337 28.4269 20.8147 29.9565 19.2131 31.7132C20.1837 32.4052 21.2444 32.8241 22.3953 32.9696ZM16.496 28.21C16.8593 29.1203 17.3698 29.9362 18.0275 30.6575C18.1018 30.7389 18.1602 30.797 18.2026 30.832C20.1225 28.7263 22.1537 27.0394 24.2964 25.7715C24.1373 25.2248 23.9835 24.7478 23.835 24.3406C23.8029 24.3525 23.7568 24.377 23.6958 24.4148C23.6346 24.4528 23.591 24.4805 23.5642 24.498L23.1666 24.7073C22.8907 24.847 22.4994 24.9968 21.9932 25.1567C21.4866 25.3164 20.9259 25.4605 20.3106 25.5885C19.6953 25.7163 18.9873 25.7687 18.1863 25.7453C17.3855 25.722 16.6167 25.5971 15.8795 25.3703C15.9272 26.3533 16.1329 27.3 16.496 28.21ZM18.0275 19.2105C16.7865 20.5716 16.0759 22.2236 15.8955 24.1662L15.9272 23.9393C16.5213 24.1838 17.1869 24.3147 17.9241 24.332C18.6612 24.3493 19.3123 24.3015 19.8772 24.1882C20.4419 24.0746 21.0225 23.9146 21.6195 23.7084C22.216 23.5017 22.6137 23.3508 22.8126 23.2545C23.0115 23.1585 23.1694 23.0815 23.2861 23.0234L23.3099 23.0148L23.3259 22.9972C22.4825 20.9326 21.5333 19.0768 20.4778 17.4309C19.5443 17.8495 18.7277 18.4428 18.0275 19.2105ZM24.8175 17.0248C23.8177 16.7892 22.8244 16.7761 21.8383 16.9855C22.8405 18.5619 23.745 20.2981 24.5509 22.1943C25.7709 21.2173 26.7784 19.9434 27.574 18.373C26.736 17.71 25.817 17.2605 24.8175 17.0248ZM28.4568 19.3764C28.4143 19.4461 28.36 19.5321 28.2936 19.6337C28.2273 19.7354 28.1464 19.8592 28.0509 20.0046C27.9556 20.1499 27.8453 20.3085 27.7208 20.48C27.5962 20.6516 27.4609 20.8319 27.3149 21.0211C27.1692 21.2101 27.01 21.4078 26.8378 21.6142C26.6652 21.8209 26.4863 22.0259 26.3006 22.2295C26.1152 22.4329 25.9147 22.6409 25.7001 22.8532C25.4855 23.0656 25.2693 23.2616 25.0519 23.4419C25.0624 23.4886 25.0864 23.5584 25.1235 23.6515C25.1607 23.7444 25.1897 23.8145 25.2113 23.8607C25.3331 24.2156 25.4684 24.6199 25.6166 25.0737C26.1312 24.8353 26.651 24.6402 27.1763 24.4889C27.7012 24.3378 28.1385 24.2361 28.4886 24.1836C28.8388 24.1314 29.1875 24.1009 29.5348 24.0921C29.8822 24.0833 30.1154 24.0863 30.2349 24.1007C30.3544 24.1153 30.4697 24.1313 30.5809 24.1487L30.597 24.1487C30.4272 22.2642 29.7353 20.6384 28.5205 19.2716L28.4568 19.3764Z" fill="#333333"/>
</svg>
