<svg width="46" height="58" viewBox="0 0 46 58" fill="none" xmlns="http://www.w3.org/2000/svg">
<path d="M36.0842 41.2573L27.6882 46.3877L20.9462 50.5089L17.8932 48.6419L15.1342 46.9599L10.2762 43.9907L8.94819 43.1751L7.52519 42.3003L7.20719 42.1067L5.81619 41.2573V22.7805L20.9462 13.5289L23.3952 15.0172L27.3622 10.8209L20.9462 6.91013L0.394196 19.4664V44.5788L20.9462 57.1266L41.5062 44.5788V34.1499L36.0842 39.8853V41.2573ZM35.0742 15.5303L31.0992 19.735L36.0842 22.7794V27.0181L41.5062 21.2826V19.4664L35.0742 15.5303Z" fill="#4F93FF"/>
<path d="M43.6522 4.0752L33.6512 14.6639L29.6752 18.8687L28.3952 20.2227L8.7972 40.9537V40.9453L7.56519 40.1974V34.1414L39.8202 0.0216675L43.6522 4.0752Z" fill="#4F93FF"/>
<path d="M32.7122 28.3552L16.4142 45.6049L11.5642 42.6272L28.8802 24.3016L32.7122 28.3552Z" fill="#4F93FF"/>
<path d="M45.7752 27.254L41.5062 31.7698L36.0842 37.5063L32.4582 41.3409L20.9462 48.3637L19.1732 47.2868L36.0842 29.3982L41.5062 23.6627L41.9432 23.2004L45.7752 27.254Z" fill="#4F93FF"/>
</svg>
