<svg width="44" height="46" viewBox="0 0 44 46" fill="none" xmlns="http://www.w3.org/2000/svg">
<ellipse cx="21.7333" cy="23" rx="21.7333" ry="23" fill="#F3F5F8"/>
<path fill-rule="evenodd" clip-rule="evenodd" d="M18.6711 17.0923C17.3453 17.1579 16.1961 17.5134 15.2682 18.5268C14.3371 19.5454 14.017 20.8107 13.957 22.2497C13.9197 23.1478 13.7017 29.9328 14.3339 31.7122C14.7601 32.9126 15.5997 33.8356 16.7042 34.3046C17.2197 34.5245 17.808 34.6733 18.6711 34.7167C25.8877 35.0749 28.5628 34.8799 29.6908 31.7122C29.891 31.1483 30.0288 30.5036 30.0669 29.5594C30.3967 21.6244 30.0134 19.9045 28.7557 18.5268C27.7581 17.4354 26.5846 16.6924 18.6711 17.0923ZM18.7375 33.1209C17.9474 33.0819 17.5187 32.9375 17.2326 32.816C16.513 32.5093 15.9725 31.9189 15.6945 31.1343C15.2131 29.7822 15.3728 23.3607 15.4157 22.3216C15.4579 21.3038 15.6459 20.3736 16.3007 19.6555C17.1111 18.7689 18.1581 18.3344 25.2871 18.6873C26.2175 18.7334 27.0676 18.9391 27.724 19.6555C28.5344 20.5421 28.9364 21.6992 28.609 29.4878C28.5733 30.3523 28.4412 30.8213 28.3302 31.1343C27.5968 33.1956 25.9095 33.4817 18.7375 33.1209ZM25.3658 21.1715C25.3658 21.7584 25.8009 22.2357 26.3382 22.2357C26.8755 22.2357 27.3115 21.7584 27.3115 21.1715C27.3115 20.5846 26.8755 20.1078 26.3382 20.1078C25.8009 20.1078 25.3658 20.5846 25.3658 21.1715ZM17.851 25.9041C17.851 28.4184 19.7141 30.4569 22.0123 30.4569C24.3106 30.4569 26.1737 28.4184 26.1737 25.9041C26.1737 23.3897 24.3106 21.3525 22.0123 21.3525C19.7141 21.3525 17.851 23.3897 17.851 25.9041ZM19.3113 25.9041C19.3113 24.2728 20.5204 22.9492 22.0123 22.9492C23.5043 22.9492 24.7134 24.2728 24.7134 25.9041C24.7134 27.5363 23.5043 28.8602 22.0123 28.8602C20.5204 28.8602 19.3113 27.5363 19.3113 25.9041Z" fill="#333333"/>
</svg>
