<svg width="44" height="46" viewBox="0 0 44 46" fill="none" xmlns="http://www.w3.org/2000/svg">
<ellipse cx="21.7333" cy="23" rx="21.7333" ry="23" fill="#F3F5F8"/>
<path fill-rule="evenodd" clip-rule="evenodd" d="M32.6209 35.3804H29.9061V30.1707C29.9061 28.7415 29.3313 27.9442 28.3003 27.9442C27.1784 27.9442 26.5126 28.775 26.5126 30.1707V35.3804H23.7978V25.7039H26.5126V26.792C26.5126 26.792 27.3644 25.1529 29.2837 25.1529C31.2038 25.1529 32.6209 26.4379 32.6209 29.0967V35.3804ZM20.7043 24.1563C19.7887 24.1563 19.0469 23.336 19.0469 22.3245C19.0469 21.3137 19.7887 20.4934 20.7043 20.4934C21.6192 20.4934 22.361 21.3137 22.361 22.3245C22.3617 23.336 21.6192 24.1563 20.7043 24.1563ZM19.0469 35.3804H22.4404V25.7039H19.0469V35.3804Z" fill="#333333"/>
</svg>
