<svg width="44" height="46" viewBox="0 0 44 46" fill="none" xmlns="http://www.w3.org/2000/svg">
<ellipse cx="21.7333" cy="23" rx="21.7333" ry="23" fill="#F3F5F8"/>
<path fill-rule="evenodd" clip-rule="evenodd" d="M19.1228 32.8418C25.2692 32.8418 28.6312 27.1136 28.6312 22.1467C28.6312 21.9836 28.6312 21.8218 28.6214 21.6605C29.2754 21.1292 29.8398 20.4695 30.2886 19.7147C29.6794 20.0188 29.0319 20.2183 28.3698 20.3062C29.0669 19.8363 29.589 19.098 29.839 18.2268C29.1826 18.6647 28.4651 18.9737 27.7166 19.1395C26.451 17.6262 24.3343 17.5528 22.988 18.9764C22.1207 19.8943 21.7517 21.2629 22.0213 22.5683C19.3345 22.4162 16.831 20.989 15.1337 18.6411C14.2468 20.3587 14.7004 22.5552 16.1688 23.6582C15.637 23.6408 15.1166 23.4797 14.6515 23.1884V23.2361C14.6524 25.0252 15.7738 26.5657 17.3326 26.9202C16.8407 27.0714 16.3244 27.0933 15.8243 26.9843C16.2617 28.5159 17.5167 29.565 18.946 29.5952C17.7627 30.6414 16.3008 31.2095 14.7957 31.2076C14.5302 31.2067 14.2647 31.1893 14 31.1536C15.5287 32.2565 17.3066 32.8418 19.1228 32.8391" fill="#333333"/>
</svg>
